<?xml version="1.0" encoding="UTF-8"?>
<!DOCTYPE svg PUBLIC "-//W3C//DTD SVG 1.1 Tiny//EN" "http://www.w3.org/Graphics/SVG/1.1/DTD/svg11-tiny.dtd">
<svg baseProfile="tiny" height="88" version="1.1" viewBox="0 0 88 88" width="88" xmlns="http://www.w3.org/2000/svg" xmlns:xlink="http://www.w3.org/1999/xlink">
<g>
<rect fill="none" height="88" width="88"/>
<g>
<linearGradient gradientUnits="userSpaceOnUse" id="XMLID_4_" x1="44.2158" x2="44.2158" y1="-7.7339" y2="74.1646">
<stop offset="0" style="stop-color:#663300"/>
<stop offset="1" style="stop-color:#610000"/>
</linearGradient>
<path d="M44.08,6.864c0,0-2.163,21.994-2.163,37.138s2.163,35.606,2.163,38.04    c0,0,2.435-17.758,2.435-38.13C46.515,23.54,44.711,14.346,44.08,6.864z" fill="url(#XMLID_4_)"/>
<linearGradient gradientUnits="userSpaceOnUse" id="XMLID_5_" x1="5.2217" x2="39.1221" y1="53.2441" y2="53.2441">
<stop offset="0" style="stop-color:#993300"/>
<stop offset="1" style="stop-color:#610000"/>
</linearGradient>
<path d="M39.122,40.938L37.41,78.346c0,0-0.631,0.271-0.902-2.975c-0.27-3.245-1.352-29.206-1.352-29.206    S10.818,45.354,5.86,37.332c0,0-0.722-1.442-0.631-4.777c0.09-3.335,9.194-4.327,11.088-4.417l0.09,1.082    c0,0-8.653,1.082-9.825,3.516C6.582,32.735,3.696,39.405,39.122,40.938z" fill="url(#XMLID_5_)"/>
<linearGradient gradientUnits="userSpaceOnUse" id="XMLID_6_" x1="83.2334" x2="49.333" y1="53.2441" y2="53.2441">
<stop offset="0" style="stop-color:#993300"/>
<stop offset="1" style="stop-color:#610000"/>
</linearGradient>
<path d="M49.333,40.938l1.712,37.408c0,0,0.631,0.271,0.902-2.975c0.271-3.245,1.353-29.206,1.353-29.206    s24.338-0.811,29.295-8.833c0,0,0.722-1.442,0.631-4.777c-0.09-3.335-9.194-4.327-11.087-4.417l-0.09,1.082    c0,0,8.653,1.082,9.825,3.516C81.874,32.735,84.759,39.405,49.333,40.938z" fill="url(#XMLID_6_)"/>
</g>
</g>
</svg>
